<?xml version="1.0" encoding="iso-8859-1"?>
<!-- Generator: Adobe Illustrator 29.2.1, SVG Export Plug-In . SVG Version: 9.03 Build 55982)  -->
<svg version="1.1" id="Layer_1" xmlns="http://www.w3.org/2000/svg" xmlns:xlink="http://www.w3.org/1999/xlink" x="0px" y="0px"
	 viewBox="0 0 304.046 46" style="enable-background:new 0 0 304.046 46;" xml:space="preserve">
<g>
	<g>
		<path d="M16.737,2.07c-1.38,0.051-2.274,0.511-2.964,1.687L9.557,10.86v4.778c0.485,1.15,1.712,1.303,2.887,1.354v0.665H4.191
			v-0.665c1.176-0.051,2.607-0.23,2.99-0.996v-4.932L2.888,3.807C2.146,2.581,1.431,2.172,0,2.07V1.405h7.18V2.07
			C5.826,2.146,5.392,2.402,5.008,2.709l3.986,6.899l3.91-6.874c-0.409-0.306-0.946-0.588-2.3-0.665V1.405h6.133V2.07z
			 M24.608,16.43c-0.562,0.665-1.559,1.456-2.453,1.456c-1.38,0-2.044-0.946-2.095-1.609c-0.869,0.92-1.993,1.609-3.066,1.609
			c-1.38,0-2.555-0.843-2.555-2.299c0-0.716,0.179-1.457,0.537-2.044l5.085-1.84V9.812c0-1.15-0.537-2.249-1.687-2.249
			c-0.69,0-1.354,0.843-1.405,2.146l-2.3,0.384V9.838c0.766-2.3,3.296-3.194,4.523-3.194c2.326,0,3.169,1.227,3.143,3.118
			l-0.077,5.366c-0.025,1.047,0.537,1.303,1.048,1.303c0.409,0,0.818-0.256,1.303-0.741V16.43z M20.059,12.342
			c-0.665,0.307-2.3,1.022-3.015,1.38c-0.103,0.409-0.179,0.766-0.179,1.329c0,0.766,0.434,1.533,1.278,1.533
			c0.766,0,1.201-0.255,1.891-0.792L20.059,12.342z M30.51,17.657h-5.673v-0.588c1.15-0.077,1.482-0.332,1.687-0.766V3.066
			c0-0.869-0.128-1.227-1.891-1.38V1.175L29.309,0l0.153,0.434l-0.741,0.92v14.948c0.256,0.511,0.741,0.69,1.789,0.766V17.657z
			 M41.395,15.664c-1.456,1.328-2.657,2.197-4.753,2.197c-2.683,0-4.753-2.121-4.753-5.085c0-3.628,2.223-6.107,5.366-6.107
			c2.53,0,3.935,1.431,3.935,3.705v0.46l-6.899-0.051c-0.051,0.281-0.077,0.741-0.077,1.303c0,2.607,1.635,4.319,3.807,4.319
			c1.303,0,1.968-0.46,2.99-1.329L41.395,15.664z M38.891,10.042c0-1.354-0.843-2.581-2.019-2.581c-1.278,0-2.172,1.022-2.479,2.632
			L38.891,10.042z"/>
	</g>
	<g>
		<path d="M52.683,17.898c-1.358,0-2.476-0.394-3.155-0.68l-0.307-2.87h0.482c0.153,0.701,0.679,1.621,1.293,2.081
			c0.416,0.307,1.227,0.767,1.95,0.767c1.402,0,2.147-0.876,2.147-1.84c0-1.227-0.789-1.555-2.103-2.103
			c-2.476-1.052-3.352-1.687-3.352-3.353c0-1.862,1.862-3.133,4.338-3.133c1.161,0,2.06,0.306,2.651,0.57v2.783h-0.46
			c-0.066-0.745-0.35-1.622-0.986-2.016c-0.241-0.154-0.92-0.592-1.687-0.592c-1.38,0-2.081,0.855-2.081,1.687
			c0,1.117,0.57,1.577,2.257,2.235c2.3,0.92,3.22,1.643,3.22,3.265C56.89,16.693,55.005,17.898,52.683,17.898z"/>
		<path d="M68.935,14.545l-0.592,2.739c-1.271,0.394-1.687,0.591-3.681,0.591c-3.462,0-5.959-2.476-5.959-5.631
			c0-3.22,2.651-5.455,6.003-5.455c1.665,0,2.586,0.306,3.856,0.613v2.892h-0.46c-0.066-0.745-0.373-1.577-0.986-1.972
			C66.81,8.104,66.043,7.49,64.553,7.49c-2.388,0-3.747,1.994-3.747,4.361c0,3.111,1.753,5.302,4.535,5.302
			c0.898,0,1.534-0.373,1.819-0.613c0.657-0.504,1.117-1.293,1.271-2.082L68.935,14.545z"/>
		<path d="M83.057,17.657H77.93v-0.482c0.767-0.022,1.446-0.241,1.621-0.57v-3.944h-5.696v3.944c0.131,0.328,0.855,0.548,1.599,0.57
			v0.482h-5.083v-0.482c0.745-0.022,1.468-0.241,1.599-0.57V8.038C71.84,7.71,71.117,7.49,70.372,7.447V7.008h5.083v0.438
			C74.71,7.49,73.987,7.71,73.855,8.038v3.725h5.696V8.038C79.376,7.71,78.698,7.49,77.93,7.447V7.008h5.127v0.438
			c-0.767,0.044-1.446,0.263-1.621,0.591v8.567c0.175,0.328,0.855,0.548,1.621,0.57V17.657z"/>
		<path d="M89.518,17.92c-3.374,0-5.324-2.322-5.324-5.543c0-3.265,2.695-5.609,6.069-5.609c3.418,0,5.324,2.344,5.324,5.433
			C95.587,15.576,92.892,17.92,89.518,17.92z M89.343,7.512c-1.578,0-3.111,1.753-3.111,4.361c0,3.067,1.468,5.28,4.097,5.28
			c1.665,0,3.221-1.687,3.221-4.338C93.55,9.594,91.928,7.512,89.343,7.512z"/>
		<path d="M102.742,17.92c-3.374,0-5.324-2.322-5.324-5.543c0-3.265,2.695-5.609,6.069-5.609c3.418,0,5.324,2.344,5.324,5.433
			C108.811,15.576,106.116,17.92,102.742,17.92z M102.567,7.512c-1.578,0-3.111,1.753-3.111,4.361c0,3.067,1.468,5.28,4.097,5.28
			c1.665,0,3.221-1.687,3.221-4.338C106.774,9.594,105.152,7.512,102.567,7.512z"/>
		<path d="M118.856,17.657h-9.202v-0.482c0.679-0.044,1.709-0.219,1.928-0.767v-8.37c-0.132-0.328-0.855-0.526-1.599-0.57v-0.46
			h5.236v0.46c-0.745,0.044-1.621,0.263-1.753,0.591v8.786l3.024-0.088c1.139-0.044,1.884-1.117,1.906-2.519h0.46V17.657z"/>
		<path d="M130.646,17.92c-3.374,0-5.324-2.322-5.324-5.543c0-3.265,2.695-5.609,6.069-5.609c3.418,0,5.324,2.344,5.324,5.433
			C136.715,15.576,134.02,17.92,130.646,17.92z M130.471,7.512c-1.578,0-3.111,1.753-3.111,4.361c0,3.067,1.468,5.28,4.097,5.28
			c1.665,0,3.221-1.687,3.221-4.338C134.677,9.594,133.056,7.512,130.471,7.512z"/>
		<path d="M146.12,9.704h-0.46c-0.066-1.468-0.679-1.862-1.928-1.862h-2.366v4.141l2.279-0.088c1.095-0.044,1.577-0.066,1.731-1.293
			h0.438v3.593h-0.46c-0.132-1.358-0.57-1.38-1.709-1.38l-2.279-0.022v3.549c0.219,0.548,1.183,0.789,1.95,0.833v0.482h-5.609
			v-0.482c0.745-0.044,1.556-0.197,1.775-0.745V8.104c-0.153-0.373-0.92-0.592-1.687-0.614V7.008h6.923
			c0.373,0,0.745-0.022,0.986-0.109h0.416V9.704z"/>
		<path d="M157.669,13.472c-0.394,0-0.833-0.088-1.337-0.219v3.089c0.219,0.548,1.248,0.789,2.016,0.833v0.482h-5.74v-0.482
			c0.745-0.044,1.621-0.197,1.84-0.745V8.104c-0.154-0.394-0.986-0.592-1.753-0.636v-0.46c1.819,0,4.009-0.066,4.776-0.066
			c2.783,0,4.163,1.249,4.163,3.111C161.634,11.96,160.232,13.472,157.669,13.472z M157.362,7.622c-0.241,0-0.68,0-1.03,0.044v5.083
			c0.328,0.066,0.635,0.066,0.942,0.066c1.49,0,2.366-1.162,2.366-2.826C159.641,8.718,158.808,7.622,157.362,7.622z"/>
		<path d="M174.839,7.469c-0.745,0.044-1.447,0.394-1.6,0.745v5.28c0,3.09-1.928,4.426-4.557,4.426c-2.694,0-4.338-1.49-4.338-4.097
			V8.06c-0.175-0.328-0.855-0.548-1.599-0.591v-0.46h5.127v0.46c-0.767,0.044-1.49,0.263-1.644,0.591v5.412
			c0,2.147,1.051,3.33,2.98,3.33c2.037,0,3.045-1.249,3.045-3.659v-2.125c0-0.92-0.066-2.301-0.088-2.804
			c-0.176-0.351-1.118-0.701-1.884-0.745v-0.46h4.557V7.469z"/>
		<path d="M181.236,17.657h-5.236v-0.482c0.767-0.044,1.819-0.219,2.037-0.767v-8.37c-0.131-0.328-0.898-0.526-1.665-0.57v-0.46
			c2.147-0.022,3.637-0.088,4.973-0.088c2.476,0,3.681,1.008,3.681,2.213c0,1.03-0.46,1.73-1.95,2.388
			c1.578,0.416,2.52,1.468,2.52,2.695C185.596,16.54,183.996,17.657,181.236,17.657z M180.732,7.578h-0.811v3.769
			c0.394-0.044,0.92-0.044,1.293-0.044c0.373,0,0.789,0.044,1.052,0.044c0.592-0.483,0.811-1.14,0.811-1.907
			C183.076,8.367,182.156,7.578,180.732,7.578z M180.71,11.982c-0.263,0-0.613,0-0.789,0.022v4.338
			c0.219,0.504,0.658,0.701,1.38,0.701c1.512,0,2.279-1.183,2.279-2.739C183.58,12.815,182.112,11.982,180.71,11.982z"/>
		<path d="M195.958,17.657h-9.202v-0.482c0.68-0.044,1.709-0.219,1.928-0.767v-8.37c-0.131-0.328-0.854-0.526-1.599-0.57v-0.46
			h5.236v0.46c-0.745,0.044-1.621,0.263-1.753,0.591v8.786l3.024-0.088c1.139-0.044,1.884-1.117,1.906-2.519h0.46V17.657z"/>
		<path d="M202.815,17.657h-5.302v-0.482c0.789-0.044,1.577-0.263,1.709-0.591V8.06c-0.132-0.328-0.92-0.548-1.709-0.591v-0.46
			h5.302v0.46c-0.788,0.044-1.577,0.263-1.709,0.591v8.523c0.131,0.328,0.92,0.548,1.709,0.591V17.657z"/>
		<path d="M214.066,14.545l-0.591,2.739c-1.271,0.394-1.687,0.591-3.681,0.591c-3.461,0-5.96-2.476-5.96-5.631
			c0-3.22,2.651-5.455,6.003-5.455c1.665,0,2.586,0.306,3.856,0.613v2.892h-0.46c-0.066-0.745-0.372-1.577-0.986-1.972
			c-0.306-0.219-1.073-0.833-2.563-0.833c-2.388,0-3.747,1.994-3.747,4.361c0,3.111,1.753,5.302,4.536,5.302
			c0.898,0,1.534-0.373,1.818-0.613c0.658-0.504,1.118-1.293,1.271-2.082L214.066,14.545z"/>
		<path d="M233.13,17.657h-5.127v-0.482c0.767-0.022,1.446-0.241,1.622-0.57v-3.944h-5.697v3.944c0.132,0.328,0.855,0.548,1.6,0.57
			v0.482h-5.083v-0.482c0.745-0.022,1.468-0.241,1.599-0.57V8.038c-0.131-0.328-0.854-0.548-1.599-0.591V7.008h5.083v0.438
			c-0.745,0.044-1.468,0.263-1.6,0.591v3.725h5.697V8.038c-0.176-0.328-0.855-0.548-1.622-0.591V7.008h5.127v0.438
			c-0.767,0.044-1.446,0.263-1.621,0.591v8.567c0.175,0.328,0.854,0.548,1.621,0.57V17.657z"/>
		<path d="M243.927,17.657h-5.631l-3.79,0.044v-0.46c0.766-0.044,1.906-0.263,2.125-0.811V8.038
			c-0.131-0.328-0.854-0.526-1.621-0.57v-0.46h6.924c0.46,0,0.766-0.044,0.986-0.109h0.394v2.804h-0.438
			c-0.066-1.468-0.658-1.862-1.928-1.862h-2.433v3.965h2.279c1.14,0,1.6-0.022,1.753-1.248h0.416v3.461h-0.438
			c-0.131-1.337-0.504-1.358-1.731-1.358h-2.279v3.615c0.044,0.219,0.132,0.46,0.438,0.57l2.651-0.044
			c1.117-0.022,1.862-0.504,1.906-1.928h0.416V17.657z"/>
		<path d="M257.135,17.657h-5.105v-0.482c0.767-0.044,1.402-0.219,1.578-0.57l-1.096-3.133h-3.418l-1.073,2.936
			c0.175,0.394,0.832,0.723,1.577,0.767v0.482h-4.36v-0.482c0.766-0.044,1.315-0.175,1.643-0.591c0.46-1.14,0.986-2.432,1.49-3.79
			c0.701-1.884,1.402-3.725,1.797-4.864c0.176-0.504,0.176-0.701,0.219-1.03h2.037c0.044,0.526,0.088,0.833,0.219,1.271
			c0.57,1.774,1.03,3.155,1.512,4.579c0.394,1.183,0.811,2.279,1.358,3.703c0.175,0.482,0.855,0.68,1.621,0.723V17.657z
			 M252.228,12.639l-1.096-3.44l-0.219-0.811h-0.088L250.584,9.2l-1.205,3.44H252.228z"/>
		<path d="M267.341,17.657h-9.202v-0.482c0.68-0.044,1.709-0.219,1.928-0.767v-8.37c-0.131-0.328-0.854-0.526-1.599-0.57v-0.46
			h5.236v0.46c-0.745,0.044-1.621,0.263-1.753,0.591v8.786l3.024-0.088c1.139-0.044,1.884-1.117,1.906-2.519h0.46V17.657z"/>
		<path d="M278.202,10.054h-0.438c-0.044-1.424-0.81-2.169-2.016-2.191l-1.797-0.022v8.413c0.373,0.789,1.293,0.876,2.06,0.92v0.482
			h-6.047v-0.482c0.766-0.044,1.862-0.197,2.103-0.679V7.841l-1.797,0.022c-1.205,0.022-1.972,0.767-1.994,2.191h-0.46V6.877h0.416
			c0.219,0.066,0.438,0.131,0.986,0.131h7.581c0.394,0,0.767-0.066,0.986-0.131h0.416V10.054z"/>
		<path d="M292.537,17.657h-5.127v-0.482c0.767-0.022,1.446-0.241,1.622-0.57v-3.944h-5.697v3.944c0.132,0.328,0.855,0.548,1.6,0.57
			v0.482h-5.083v-0.482c0.745-0.022,1.468-0.241,1.599-0.57V8.038c-0.131-0.328-0.854-0.548-1.599-0.591V7.008h5.083v0.438
			c-0.745,0.044-1.468,0.263-1.6,0.591v3.725h5.697V8.038c-0.176-0.328-0.855-0.548-1.622-0.591V7.008h5.127v0.438
			c-0.767,0.044-1.446,0.263-1.621,0.591v8.567c0.175,0.328,0.854,0.548,1.621,0.57V17.657z"/>
	</g>
	<g>
		<path d="M59.187,33.73l-0.389-0.035c0.017-0.142,0.017-0.265,0.017-0.407c0-0.69-0.159-1.379-0.654-1.75
			c-0.3-0.23-1.184-0.92-2.776-0.92c-3.129,0-4.668,2.97-4.668,5.869c0,2.847,1.75,4.562,4.226,4.562
			c0.742,0,1.344-0.265,1.662-0.477c0.795-0.531,1.432-1.361,1.732-2.193l0.407,0.124l-1.079,2.705
			c-1.008,0.3-1.68,0.459-2.776,0.459c-3.465,0-5.976-1.662-5.976-5.18c0-3.695,2.9-6.506,6.594-6.506
			c1.768,0,2.882,0.425,4.173,0.848L59.187,33.73z"/>
		<path d="M61.335,37.938c-0.018,0.212-0.035,0.495-0.035,0.707c0,1.255,0.477,2.051,1.29,2.051c0.584,0,1.308-0.566,2.157-1.467
			l0.283,0.282c-1.149,1.379-2.387,2.104-3.271,2.104c-1.114,0-1.821-1.131-1.821-2.723c0-1.361,0.601-2.705,1.468-3.695
			c0.795-0.92,1.715-1.521,2.634-1.521c1.026,0,1.468,0.671,1.468,1.379C65.507,36.064,64.128,37.178,61.335,37.938z M62.961,34.384
			c-0.689,0.459-1.343,1.662-1.591,3.111c1.45-0.389,2.245-0.954,2.793-1.449c0.036-0.088,0.071-0.23,0.071-0.319
			C64.234,35.003,64.093,34.384,62.961,34.384z"/>
		<path d="M74.601,39.441c-1.026,1.237-1.963,2.139-2.882,2.139c-0.389,0-0.495-0.566-0.495-1.185c0-0.318,0.142-0.848,0.265-1.397
			c0,0,0.76-2.988,0.884-3.712c0-0.459-0.035-0.566-0.3-0.566c-0.336,0-1.927,1.644-3.324,3.342l-0.654,3.377h-1.308l1.167-5.711
			c0.053-0.3,0.23-0.972,0.23-1.043c0-0.053-0.018-0.177-0.053-0.177c-0.23,0-0.743,0.513-1.45,1.503l-0.336-0.23
			c0.99-1.415,1.732-2.104,2.546-2.104c0.389,0,0.566,0.495,0.566,1.043c0,0.177-0.035,0.407-0.088,0.602l-0.46,1.962
			c1.556-1.892,3.183-3.606,4.137-3.606c0.301,0,0.725,0.671,0.725,1.202c0,0.319-0.071,0.725-0.247,1.361l-0.866,3.236
			c-0.053,0.194-0.106,0.583-0.106,0.707c0,0.283,0.018,0.425,0.23,0.425c0.195,0,0.831-0.637,1.503-1.432L74.601,39.441z"/>
		<path d="M80.172,33.907l-0.212,0.742h-1.856l-0.884,4.703c-0.036,0.176-0.071,0.583-0.071,0.707c0,0.336,0.106,0.565,0.3,0.565
			c0.195,0,1.043-0.689,1.733-1.591l0.318,0.265c-1.114,1.432-2.157,2.281-3.076,2.281c-0.389,0-0.636-0.548-0.636-1.167
			c0-0.318,0.088-0.884,0.194-1.397l0.831-4.384l-1.114,0.036l0.089-0.371c1.202-0.548,1.856-1.079,2.616-2.299h0.389l-0.548,1.91
			H80.172z"/>
		<path d="M81.856,37.938c-0.018,0.212-0.035,0.495-0.035,0.707c0,1.255,0.477,2.051,1.29,2.051c0.584,0,1.308-0.566,2.157-1.467
			l0.283,0.282c-1.149,1.379-2.387,2.104-3.271,2.104c-1.114,0-1.821-1.131-1.821-2.723c0-1.361,0.601-2.705,1.468-3.695
			c0.795-0.92,1.715-1.521,2.634-1.521c1.026,0,1.468,0.671,1.468,1.379C86.028,36.064,84.649,37.178,81.856,37.938z M83.482,34.384
			c-0.689,0.459-1.343,1.662-1.591,3.111c1.45-0.389,2.245-0.954,2.793-1.449c0.036-0.088,0.071-0.23,0.071-0.319
			C84.755,35.003,84.614,34.384,83.482,34.384z"/>
		<path d="M92.454,35.48h-0.177c-0.495-0.318-0.636-0.389-1.096-0.389s-1.591,1.91-1.697,2.458l-0.76,3.889h-1.308l1.131-5.711
			c0.053-0.3,0.124-0.972,0.124-1.043c0-0.053-0.036-0.177-0.071-0.177c-0.23,0-0.725,0.513-1.432,1.503l-0.336-0.23
			c0.99-1.415,1.715-2.104,2.528-2.104c0.389,0,0.548,0.513,0.548,1.06c0,0.177-0.035,0.407-0.071,0.602l-0.141,0.937
			c0.937-1.644,1.927-2.369,2.546-2.599c0.442,0,0.849,0.212,1.22,0.407L92.454,35.48z"/>
		<path d="M102.3,39.582c-1.202,1.467-2.458,2.05-3.111,2.05c-0.973,0-2.015-1.114-2.015-3.076c0-0.92,0.353-1.945,1.079-2.846
			c1.114-1.379,2.51-2.033,3.111-2.033c1.008,0,2.016,1.114,2.016,3.076C103.378,37.673,103.025,38.698,102.3,39.582z
			 M100.655,34.42c-0.742,0-2.104,1.555-2.104,3.978c0,1.698,0.637,2.51,1.361,2.51c0.795,0,2.086-1.591,2.086-4.066
			C101.999,35.268,101.363,34.42,100.655,34.42z"/>
		<path d="M112.636,39.441c-1.026,1.237-1.963,2.139-2.882,2.139c-0.389,0-0.495-0.566-0.495-1.185c0-0.318,0.142-0.848,0.265-1.397
			c0,0,0.76-2.988,0.884-3.712c0-0.459-0.035-0.566-0.3-0.566c-0.336,0-1.927,1.644-3.324,3.342l-0.654,3.377h-1.308l1.167-5.711
			c0.053-0.3,0.23-0.972,0.23-1.043c0-0.053-0.018-0.177-0.053-0.177c-0.23,0-0.743,0.513-1.45,1.503l-0.336-0.23
			c0.99-1.415,1.732-2.104,2.546-2.104c0.389,0,0.566,0.495,0.566,1.043c0,0.177-0.035,0.407-0.088,0.602l-0.46,1.962
			c1.556-1.892,3.183-3.606,4.137-3.606c0.301,0,0.725,0.671,0.725,1.202c0,0.319-0.071,0.725-0.247,1.361l-0.866,3.236
			c-0.053,0.194-0.106,0.583-0.106,0.707c0,0.283,0.018,0.425,0.23,0.425c0.194,0,0.831-0.637,1.503-1.432L112.636,39.441z"/>
		<path d="M128.175,33.73l-0.389-0.035c0.017-0.142,0.017-0.265,0.017-0.407c0-0.69-0.159-1.379-0.654-1.75
			c-0.3-0.23-1.184-0.92-2.776-0.92c-3.129,0-4.668,2.97-4.668,5.869c0,2.847,1.75,4.562,4.226,4.562
			c0.742,0,1.344-0.265,1.662-0.477c0.795-0.531,1.432-1.361,1.732-2.193l0.407,0.124l-1.079,2.705
			c-1.008,0.3-1.68,0.459-2.776,0.459c-3.465,0-5.976-1.662-5.976-5.18c0-3.695,2.9-6.506,6.594-6.506
			c1.768,0,2.882,0.425,4.173,0.848L128.175,33.73z"/>
		<path d="M132.706,28.922l-2.121,10.431c-0.036,0.159-0.089,0.583-0.089,0.707c0,0.265,0.071,0.495,0.265,0.495
			s0.813-0.601,1.485-1.415l0.318,0.265c-1.043,1.273-1.998,2.175-2.917,2.175c-0.389,0-0.512-0.548-0.512-1.167
			c0-0.318,0.106-0.902,0.212-1.397l1.609-7.903c0.071-0.318,0.106-0.531,0.106-0.707c0-0.353-0.159-0.477-0.654-0.477
			c-0.159,0-0.424,0.053-0.654,0.07l0.088-0.407l2.581-0.671H132.706z"/>
		<path d="M137.226,39.441c-1.026,1.237-1.963,2.139-2.882,2.139c-0.389,0-0.531-0.548-0.531-1.167c0-0.318,0.106-0.937,0.247-1.485
			l0.796-3.2c0.088-0.388,0.212-0.972,0.212-1.043c0-0.053,0.036-0.177-0.053-0.177c-0.23,0-0.742,0.513-1.45,1.503l-0.336-0.23
			c0.99-1.415,1.768-2.104,2.581-2.104c0.389,0,0.531,0.495,0.531,1.043c0,0.177,0,0.407-0.053,0.602l-1.026,4.101
			c-0.035,0.142-0.089,0.459-0.089,0.583c0,0.265,0.089,0.548,0.283,0.548c0.177,0,0.778-0.583,1.45-1.379L137.226,39.441z
			 M136.395,31.291c-0.548,0-0.902-0.442-0.902-0.849c0-0.424,0.354-0.883,0.902-0.883c0.531,0,0.884,0.459,0.884,0.883
			C137.279,30.848,136.926,31.291,136.395,31.291z"/>
		<path d="M150.331,39.441c-1.026,1.237-1.962,2.139-2.882,2.139c-0.389,0-0.513-0.548-0.513-1.167c0-0.318,0.159-0.848,0.283-1.397
			c0,0,0.742-2.9,0.866-3.624c0-0.531-0.106-0.654-0.301-0.654c-0.353,0-1.785,1.574-3.182,3.271l-0.796,3.43h-1.29
			c0,0,1.202-5.322,1.326-6.047c0-0.548-0.106-0.654-0.3-0.654c-0.372,0-1.804,1.574-3.2,3.271l-0.672,3.43h-1.308l1.167-5.711
			c0.053-0.3,0.23-0.972,0.23-1.043c0-0.053,0.035-0.177-0.053-0.177c-0.23,0-0.743,0.513-1.45,1.503l-0.336-0.23
			c0.99-1.415,1.732-2.104,2.546-2.104c0.389,0,0.566,0.495,0.566,1.043c0,0.177-0.035,0.407-0.088,0.602l-0.442,1.909
			c1.556-1.891,3.058-3.553,4.013-3.553c0.3,0,0.76,0.671,0.76,1.202c0,0.319-0.106,0.725-0.265,1.361l-0.247,0.99
			c1.556-1.891,3.023-3.553,3.978-3.553c0.3,0,0.76,0.671,0.76,1.202c0,0.319-0.071,0.725-0.247,1.361l-0.867,3.236
			c-0.035,0.159-0.106,0.53-0.106,0.654c0,0.336,0.036,0.478,0.23,0.478c0.194,0,0.831-0.637,1.503-1.432L150.331,39.441z"/>
		<path d="M158.842,39.441c-1.026,1.237-1.963,2.139-2.882,2.139c-0.388,0-0.548-0.548-0.548-1.167l0.477-2.051
			c-1.449,1.768-2.9,3.218-3.854,3.218c-0.301,0-0.849-0.513-0.849-1.892c0-1.432,0.513-2.811,1.574-3.889
			c1.326-1.361,3.023-2.087,4.827-2.087h0.53l-1.237,5.817c-0.036,0.177-0.07,0.513-0.07,0.637c0,0.23,0,0.407,0.194,0.407
			c0.212,0,0.848-0.601,1.521-1.397L158.842,39.441z M156.561,34.897c-0.213-0.053-0.478-0.07-0.672-0.07
			c-0.707,0-1.485,0.141-1.75,0.353c-0.866,0.689-1.574,1.98-1.574,4.013c0,1.06,0.265,1.361,0.46,1.361
			c0.318,0,1.679-1.343,2.952-2.917L156.561,34.897z"/>
		<path d="M164.242,33.907l-0.212,0.742h-1.857l-0.884,4.703c-0.035,0.176-0.07,0.583-0.07,0.707c0,0.336,0.106,0.565,0.301,0.565
			c0.194,0,1.043-0.689,1.732-1.591l0.318,0.265c-1.114,1.432-2.157,2.281-3.077,2.281c-0.388,0-0.636-0.548-0.636-1.167
			c0-0.318,0.088-0.884,0.194-1.397l0.831-4.384l-1.114,0.036l0.089-0.371c1.202-0.548,1.856-1.079,2.616-2.299h0.389l-0.548,1.91
			H164.242z"/>
		<path d="M165.926,37.938c-0.018,0.212-0.036,0.495-0.036,0.707c0,1.255,0.478,2.051,1.291,2.051c0.583,0,1.309-0.566,2.157-1.467
			l0.283,0.282c-1.149,1.379-2.387,2.104-3.271,2.104c-1.114,0-1.821-1.131-1.821-2.723c0-1.361,0.601-2.705,1.468-3.695
			c0.795-0.92,1.715-1.521,2.634-1.521c1.025,0,1.467,0.671,1.467,1.379C170.098,36.064,168.719,37.178,165.926,37.938z
			 M167.552,34.384c-0.689,0.459-1.343,1.662-1.591,3.111c1.449-0.389,2.245-0.954,2.794-1.449c0.035-0.088,0.07-0.23,0.07-0.319
			C168.825,35.003,168.684,34.384,167.552,34.384z"/>
		<path d="M185.513,33.73l-0.389-0.035c0.018-0.142,0.018-0.265,0.018-0.407c0-0.69-0.159-1.379-0.654-1.75
			c-0.3-0.23-1.184-0.92-2.775-0.92c-3.13,0-4.668,2.97-4.668,5.869c0,2.847,1.75,4.562,4.225,4.562
			c0.742,0,1.343-0.265,1.662-0.477c0.795-0.531,1.432-1.361,1.732-2.193l0.407,0.124l-1.079,2.705
			c-1.008,0.3-1.679,0.459-2.776,0.459c-3.465,0-5.975-1.662-5.975-5.18c0-3.695,2.9-6.506,6.595-6.506
			c1.767,0,2.882,0.425,4.172,0.848L185.513,33.73z"/>
		<path d="M194.041,39.441c-1.026,1.237-1.98,2.139-2.9,2.139c-0.389,0-0.495-0.566-0.495-1.185c0-0.318,0.159-0.848,0.283-1.397
			c0,0,0.76-2.988,0.883-3.712c0-0.442-0.053-0.566-0.318-0.566c-0.336,0-1.91,1.627-3.306,3.324l-0.671,3.394h-1.309l2.104-10.325
			c0.071-0.318,0.106-0.531,0.106-0.707c0-0.353-0.159-0.477-0.654-0.477c-0.159,0-0.425,0.053-0.654,0.07l0.088-0.407l2.582-0.671
			h0.282l-1.715,8.344c1.556-1.892,3.165-3.589,4.119-3.589c0.301,0,0.742,0.671,0.742,1.202c0,0.319-0.07,0.725-0.247,1.361
			l-0.866,3.236c-0.053,0.194-0.106,0.565-0.106,0.689c0,0.283,0.018,0.442,0.23,0.442c0.195,0,0.831-0.637,1.503-1.432
			L194.041,39.441z"/>
		<path d="M202.534,39.441c-1.026,1.237-1.962,2.139-2.882,2.139c-0.389,0-0.548-0.548-0.548-1.167l0.477-2.051
			c-1.45,1.768-2.9,3.218-3.855,3.218c-0.3,0-0.848-0.513-0.848-1.892c0-1.432,0.513-2.811,1.574-3.889
			c1.326-1.361,3.023-2.087,4.826-2.087h0.531l-1.237,5.817c-0.036,0.177-0.071,0.513-0.071,0.637c0,0.23,0,0.407,0.195,0.407
			c0.212,0,0.848-0.601,1.521-1.397L202.534,39.441z M200.254,34.897c-0.212-0.053-0.477-0.07-0.671-0.07
			c-0.708,0-1.485,0.141-1.75,0.353c-0.866,0.689-1.574,1.98-1.574,4.013c0,1.06,0.265,1.361,0.46,1.361
			c0.318,0,1.679-1.343,2.952-2.917L200.254,34.897z"/>
		<path d="M211.409,39.441c-1.026,1.237-1.963,2.139-2.882,2.139c-0.389,0-0.495-0.566-0.495-1.185c0-0.318,0.142-0.848,0.265-1.397
			c0,0,0.76-2.988,0.884-3.712c0-0.459-0.036-0.566-0.301-0.566c-0.336,0-1.927,1.644-3.324,3.342l-0.654,3.377h-1.309l1.167-5.711
			c0.053-0.3,0.23-0.972,0.23-1.043c0-0.053-0.018-0.177-0.053-0.177c-0.23,0-0.742,0.513-1.449,1.503l-0.336-0.23
			c0.991-1.415,1.733-2.104,2.546-2.104c0.389,0,0.566,0.495,0.566,1.043c0,0.177-0.036,0.407-0.089,0.602l-0.459,1.962
			c1.556-1.892,3.183-3.606,4.137-3.606c0.301,0,0.725,0.671,0.725,1.202c0,0.319-0.07,0.725-0.247,1.361l-0.866,3.236
			c-0.053,0.194-0.106,0.583-0.106,0.707c0,0.283,0.018,0.425,0.23,0.425c0.195,0,0.831-0.637,1.503-1.432L211.409,39.441z"/>
		<path d="M219.661,34.066l-0.212,0.707h-1.804c0.195,0.459,0.319,0.937,0.319,1.149c0,1.308-0.637,2.299-2.051,3.076
			c-0.954,0.531-1.626,0.742-1.626,1.291c0,0.407,0.265,0.742,1.114,1.167l0.955,0.477c0.972,0.477,1.308,1.008,1.308,1.768
			c0,0.954-1.485,2.299-4.137,2.299c-2.405,0-3.2-1.061-3.2-1.644c0-0.902,0.831-1.485,3.253-2.476
			c-0.319-0.406-0.425-0.707-0.425-1.06c0-0.195,0.495-0.69,0.884-1.131c-1.096-0.531-1.715-1.203-1.715-2.44
			c0-0.919,0.548-1.892,1.415-2.581c0.76-0.619,1.555-1.061,2.422-1.061c0.319,0,0.849,0.213,1.079,0.46H219.661z M215.631,43.029
			l-1.768-0.954c-1.538,0.707-2.175,1.538-2.175,2.227c0,0.46,0.725,1.273,2.121,1.273c1.626,0,2.758-0.99,2.758-1.449
			C216.568,43.613,216.32,43.49,215.631,43.029z M215.489,34.172c-0.69,0-1.804,1.432-1.804,3.129c0,1.008,0.459,1.697,1.096,1.697
			c0.814,0,1.874-1.449,1.874-3.147C216.656,34.827,216.126,34.172,215.489,34.172z"/>
		<path d="M220.656,37.938c-0.018,0.212-0.036,0.495-0.036,0.707c0,1.255,0.478,2.051,1.291,2.051c0.583,0,1.309-0.566,2.157-1.467
			l0.283,0.282c-1.149,1.379-2.387,2.104-3.271,2.104c-1.114,0-1.821-1.131-1.821-2.723c0-1.361,0.601-2.705,1.468-3.695
			c0.795-0.92,1.715-1.521,2.634-1.521c1.025,0,1.467,0.671,1.467,1.379C224.829,36.064,223.45,37.178,220.656,37.938z
			 M222.283,34.384c-0.689,0.459-1.343,1.662-1.591,3.111c1.449-0.389,2.245-0.954,2.794-1.449c0.035-0.088,0.07-0.23,0.07-0.319
			C223.556,35.003,223.414,34.384,222.283,34.384z"/>
		<path d="M236.848,39.441c-1.026,1.237-1.962,2.139-2.882,2.139c-0.389,0-0.548-0.548-0.548-1.167l0.477-2.051
			c-1.45,1.768-2.9,3.218-3.855,3.218c-0.3,0-0.848-0.513-0.848-1.892c0-1.432,0.513-2.811,1.574-3.889
			c1.326-1.361,3.023-2.087,4.826-2.087h0.531l-1.237,5.817c-0.036,0.177-0.071,0.513-0.071,0.637c0,0.23,0,0.407,0.195,0.407
			c0.212,0,0.848-0.601,1.521-1.397L236.848,39.441z M234.568,34.897c-0.212-0.053-0.477-0.07-0.671-0.07
			c-0.708,0-1.485,0.141-1.75,0.353c-0.866,0.689-1.574,1.98-1.574,4.013c0,1.06,0.265,1.361,0.46,1.361
			c0.318,0,1.679-1.343,2.952-2.917L234.568,34.897z"/>
		<path d="M245.723,39.441c-1.026,1.237-1.963,2.139-2.882,2.139c-0.389,0-0.495-0.566-0.495-1.185c0-0.318,0.142-0.848,0.265-1.397
			c0,0,0.76-2.988,0.884-3.712c0-0.459-0.036-0.566-0.301-0.566c-0.336,0-1.927,1.644-3.324,3.342l-0.654,3.377h-1.309l1.167-5.711
			c0.053-0.3,0.23-0.972,0.23-1.043c0-0.053-0.018-0.177-0.053-0.177c-0.23,0-0.742,0.513-1.449,1.503l-0.336-0.23
			c0.991-1.415,1.733-2.104,2.546-2.104c0.389,0,0.566,0.495,0.566,1.043c0,0.177-0.036,0.407-0.089,0.602l-0.459,1.962
			c1.556-1.892,3.183-3.606,4.137-3.606c0.301,0,0.725,0.671,0.725,1.202c0,0.319-0.07,0.725-0.247,1.361l-0.866,3.236
			c-0.053,0.194-0.106,0.583-0.106,0.707c0,0.283,0.018,0.425,0.23,0.425c0.195,0,0.831-0.637,1.503-1.432L245.723,39.441z"/>
		<path d="M254.5,28.922l-2.175,10.607c-0.035,0.212-0.07,0.477-0.07,0.619c0,0.213,0,0.477,0.194,0.477
			c0.142,0,0.849-0.654,1.521-1.449l0.319,0.265c-1.026,1.237-1.963,2.139-2.882,2.139c-0.389,0-0.531-0.548-0.531-1.167
			l0.442-1.962c-1.449,1.732-2.952,3.129-3.907,3.129c-0.3,0-0.848-0.513-0.848-1.892c0-1.432,0.513-3.023,1.574-4.101
			c1.132-1.149,2.652-1.751,4.155-2.033l0.459-2.44c0.053-0.3,0.106-0.531,0.106-0.707c0-0.353-0.176-0.477-0.672-0.477
			c-0.265,0-0.512,0.07-0.76,0.106l0.088-0.407l2.705-0.707H254.5z M252.06,34.755c-0.212-0.053-0.512-0.07-0.707-0.07
			c-0.707,0-1.591,0.159-1.838,0.353c-0.866,0.689-1.574,2.121-1.574,4.155c0,1.043,0.265,1.361,0.46,1.361
			c0.247,0,1.732-1.255,3.005-2.828L252.06,34.755z"/>
		<path d="M273.203,30.212l-0.071,0.389c-0.831,0.036-1.432,0.283-1.679,0.637l-1.945,9.176c0.089,0.353,0.849,0.584,1.644,0.619
			l-0.088,0.407h-4.879l0.088-0.407c0.831-0.035,1.415-0.265,1.68-0.619l0.901-4.278h-6.435l-0.902,4.278
			c0.07,0.353,0.848,0.584,1.644,0.619l-0.089,0.407h-4.897l0.089-0.407c0.831-0.035,1.432-0.265,1.679-0.619l1.945-9.176
			c-0.088-0.353-0.848-0.601-1.644-0.637l0.07-0.389h4.897l-0.07,0.389c-0.831,0.036-1.449,0.283-1.68,0.637l-0.848,4.049h6.436
			l0.848-4.049c-0.106-0.353-0.848-0.601-1.644-0.637l0.071-0.389H273.203z"/>
		<path d="M273.899,37.938c-0.018,0.212-0.036,0.495-0.036,0.707c0,1.255,0.478,2.051,1.291,2.051c0.583,0,1.309-0.566,2.157-1.467
			l0.283,0.282c-1.149,1.379-2.387,2.104-3.271,2.104c-1.114,0-1.821-1.131-1.821-2.723c0-1.361,0.601-2.705,1.468-3.695
			c0.795-0.92,1.715-1.521,2.634-1.521c1.025,0,1.467,0.671,1.467,1.379C278.072,36.064,276.693,37.178,273.899,37.938z
			 M275.526,34.384c-0.689,0.459-1.343,1.662-1.591,3.111c1.449-0.389,2.245-0.954,2.794-1.449c0.035-0.088,0.07-0.23,0.07-0.319
			C276.799,35.003,276.657,34.384,275.526,34.384z"/>
		<path d="M286.253,39.441c-1.026,1.237-1.962,2.139-2.882,2.139c-0.389,0-0.548-0.548-0.548-1.167l0.477-2.051
			c-1.45,1.768-2.9,3.218-3.855,3.218c-0.3,0-0.848-0.513-0.848-1.892c0-1.432,0.513-2.811,1.574-3.889
			c1.326-1.361,3.023-2.087,4.826-2.087h0.531l-1.237,5.817c-0.036,0.177-0.071,0.513-0.071,0.637c0,0.23,0,0.407,0.195,0.407
			c0.212,0,0.848-0.601,1.521-1.397L286.253,39.441z M283.972,34.897c-0.212-0.053-0.477-0.07-0.671-0.07
			c-0.708,0-1.485,0.141-1.75,0.353c-0.866,0.689-1.574,1.98-1.574,4.013c0,1.06,0.265,1.361,0.46,1.361
			c0.318,0,1.679-1.343,2.952-2.917L283.972,34.897z"/>
		<path d="M290.763,28.922l-2.121,10.431c-0.035,0.159-0.088,0.583-0.088,0.707c0,0.265,0.07,0.495,0.265,0.495
			c0.194,0,0.813-0.601,1.485-1.415l0.319,0.265c-1.043,1.273-1.998,2.175-2.917,2.175c-0.389,0-0.513-0.548-0.513-1.167
			c0-0.318,0.106-0.902,0.212-1.397l1.609-7.903c0.071-0.318,0.106-0.531,0.106-0.707c0-0.353-0.159-0.477-0.654-0.477
			c-0.159,0-0.425,0.053-0.654,0.07l0.088-0.407l2.582-0.671H290.763z"/>
		<path d="M296.063,33.907l-0.212,0.742h-1.856l-0.884,4.703c-0.036,0.176-0.071,0.583-0.071,0.707c0,0.336,0.107,0.565,0.301,0.565
			c0.194,0,1.043-0.689,1.732-1.591l0.319,0.265c-1.114,1.432-2.157,2.281-3.077,2.281c-0.389,0-0.637-0.548-0.637-1.167
			c0-0.318,0.089-0.884,0.195-1.397l0.831-4.384l-1.114,0.036l0.088-0.371c1.203-0.548,1.856-1.079,2.616-2.299h0.389l-0.548,1.91
			H296.063z"/>
		<path d="M304.046,39.441c-1.026,1.237-1.98,2.139-2.9,2.139c-0.389,0-0.495-0.566-0.495-1.185c0-0.318,0.159-0.848,0.283-1.397
			c0,0,0.76-2.988,0.883-3.712c0-0.442-0.053-0.566-0.318-0.566c-0.336,0-1.91,1.627-3.306,3.324l-0.671,3.394h-1.309l2.104-10.325
			c0.071-0.318,0.106-0.531,0.106-0.707c0-0.353-0.159-0.477-0.654-0.477c-0.159,0-0.425,0.053-0.654,0.07l0.088-0.407l2.582-0.671
			h0.282l-1.715,8.344c1.556-1.892,3.165-3.589,4.119-3.589c0.301,0,0.742,0.671,0.742,1.202c0,0.319-0.07,0.725-0.247,1.361
			l-0.866,3.236c-0.053,0.194-0.106,0.565-0.106,0.689c0,0.283,0.018,0.442,0.23,0.442c0.195,0,0.831-0.637,1.503-1.432
			L304.046,39.441z"/>
	</g>
</g>
<g>
</g>
<g>
</g>
<g>
</g>
<g>
</g>
<g>
</g>
<g>
</g>
<g>
</g>
<g>
</g>
<g>
</g>
<g>
</g>
<g>
</g>
<g>
</g>
<g>
</g>
<g>
</g>
<g>
</g>
</svg>
